<?xml version="1.0" standalone="no"?>
<!DOCTYPE svg PUBLIC "-//W3C//DTD SVG 20010904//EN"
 "http://www.w3.org/TR/2001/REC-SVG-20010904/DTD/svg10.dtd">
<svg version="1.0" xmlns="http://www.w3.org/2000/svg"
 width="512.000000pt" height="512.000000pt" viewBox="0 0 512.000000 512.000000"
 preserveAspectRatio="xMidYMid meet">

<g transform="translate(0.000000,512.000000) scale(0.100000,-0.100000)"
fill="#000000" stroke="none">
<path d="M351 2550 c1 -1261 5 -2190 10 -2192 24 -8 1472 3 1460 11 -11 7 -5
11 22 16 23 5 34 11 31 20 -9 22 16 28 31 9 13 -18 15 -17 26 14 9 26 14 30
25 21 11 -9 19 -8 34 6 10 9 17 22 14 29 -5 12 55 46 81 46 8 0 26 12 40 27
20 22 27 25 34 15 6 -10 13 -5 28 20 12 18 24 43 28 56 5 19 13 22 57 22 50 0
50 0 43 27 -4 16 -8 51 -10 78 l-3 50 7 -45 c6 -31 8 -36 9 -17 1 15 8 27 15
27 8 0 7 4 -3 10 -13 8 -12 10 3 10 9 0 17 7 17 15 0 9 7 18 15 21 8 4 15 12
15 20 0 8 5 14 10 14 6 0 10 10 10 23 0 13 5 28 11 34 21 21 17 48 -10 59 -26
10 -26 11 9 11 19 1 64 8 100 17 36 8 91 17 123 19 l57 4 0 -36 c0 -20 9 -70
20 -111 18 -71 23 -78 89 -140 73 -69 96 -112 66 -124 -10 -3 -45 -1 -80 5
-34 6 -75 9 -91 7 l-29 -4 30 -8 c52 -15 115 -48 109 -57 -3 -5 -18 -9 -34 -9
-16 0 -32 -4 -35 -10 -4 -6 5 -10 19 -10 14 0 26 -4 26 -10 0 -5 9 -10 19 -10
26 0 34 -15 17 -29 -14 -12 -11 -51 4 -51 4 0 11 -7 14 -16 3 -8 2 -13 -3 -10
-10 7 -9 -49 2 -60 3 -4 322 -8 706 -9 l700 -1 3 40 c3 37 6 41 38 47 23 5 44
2 63 -8 22 -11 35 -12 59 -4 20 7 35 8 42 1 21 -17 94 -23 125 -10 26 10 35 9
73 -13 24 -14 55 -27 70 -31 l28 -6 -3 2182 -2 2183 -2193 3 -2193 2 2 -2190z
m2995 2005 c17 -17 32 -24 45 -20 11 4 19 2 19 -4 0 -6 -7 -11 -15 -11 -21 0
-19 -30 3 -46 16 -13 16 -13 -1 -14 -10 0 -30 -13 -44 -30 -20 -24 -33 -30
-64 -30 -67 0 -98 54 -47 81 21 11 58 3 58 -13 0 -7 -5 -6 -15 2 -27 23 -74
-9 -56 -39 13 -20 70 -24 97 -6 57 37 10 125 -67 125 -30 0 -48 -8 -77 -35
-43 -39 -80 -55 -123 -55 -16 0 -29 -5 -29 -12 0 -9 -3 -9 -12 0 -7 7 -19 12
-27 12 -8 0 -55 20 -105 45 -108 53 -156 61 -253 42 -40 -8 -73 -10 -73 -6 0
15 116 31 190 26 54 -3 98 -14 155 -37 111 -46 195 -48 250 -6 77 59 151 71
191 31z m-2758 -21 c2 -22 -5 -37 -28 -59 -33 -32 -39 -28 -14 10 8 13 15 34
14 47 -3 35 -1 40 13 36 6 -3 13 -18 15 -34z m121 -23 c0 -20 -3 -30 -6 -23
-6 15 -43 16 -43 1 0 -5 -4 -7 -10 -4 -14 9 -13 15 10 53 17 28 23 32 35 22 9
-7 15 -28 14 -49z m261 39 c8 -14 8 -26 0 -40 -6 -11 -8 -26 -4 -33 6 -9 4 -9
-8 1 -9 7 -22 11 -29 10 -20 -5 -35 47 -19 66 17 22 47 20 60 -4z m782 2 c-12
-2 -20 -8 -16 -13 10 -17 11 -70 1 -76 -14 -8 -27 18 -27 53 0 22 6 34 23 41
12 6 27 8 32 4 6 -3 0 -7 -13 -9z m114 -9 c-3 -8 -6 -32 -6 -54 0 -21 -4 -39
-9 -39 -15 0 -22 32 -15 76 4 32 10 41 21 37 8 -3 12 -12 9 -20z m277 9 c-27
-4 -30 -17 -5 -31 11 -7 13 -10 3 -11 -8 0 -11 -7 -8 -19 5 -19 -15 -36 -27
-24 -3 4 -6 26 -6 49 0 36 3 43 23 46 12 2 27 2 32 -1 6 -4 0 -7 -12 -9z
m-1313 -2 c13 -8 13 -10 -1 -10 -16 0 -29 -19 -29 -41 0 -5 8 -9 17 -9 13 0
14 -3 6 -11 -20 -20 -43 -2 -43 34 0 47 16 59 50 37z m238 -2 c7 -7 12 -22 12
-35 0 -36 20 -27 21 10 0 27 2 29 9 12 14 -33 12 -68 -4 -62 -7 3 -18 1 -23
-4 -14 -14 -33 12 -40 55 -6 37 3 46 25 24z m170 5 c-18 -5 -26 -33 -9 -33 5
0 6 -12 2 -27 -10 -38 -25 -35 -29 5 -5 46 3 62 30 61 17 -1 18 -2 6 -6z m167
-3 c19 -8 18 -9 -4 -9 -23 -1 -24 -2 -6 -21 18 -20 15 -50 -6 -50 -7 0 -9 3
-6 7 4 3 -2 12 -13 20 -29 20 -26 64 4 62 6 0 20 -4 31 -9z m198 3 c-7 -2 -19
-2 -25 0 -7 3 -2 5 12 5 14 0 19 -2 13 -5z m375 -23 c26 -35 28 -48 5 -29 -15
13 -16 11 -11 -13 9 -47 -20 -33 -30 15 -14 65 0 76 36 27z m52 -32 c0 -21 -4
-38 -9 -38 -11 0 -22 66 -14 86 9 25 23 -4 23 -48z m270 50 c0 -5 -7 -8 -15
-8 -8 0 -14 -8 -13 -17 6 -73 -15 -84 -29 -15 l-9 47 33 0 c18 0 33 -3 33 -7z
m-660 -11 c0 -15 -50 -70 -57 -63 -7 7 36 76 48 76 5 0 9 -6 9 -13z m10 -57
c0 -5 -5 -10 -11 -10 -5 0 -7 5 -4 10 3 6 8 10 11 10 2 0 4 -4 4 -10z m-433
-190 c-3 -10 1 -27 8 -37 11 -15 15 -15 29 -4 21 17 21 3 0 -20 -17 -18 -12
-55 5 -44 5 3 12 1 16 -5 3 -5 -2 -10 -13 -10 -11 0 -25 -13 -35 -35 -22 -46
-51 -63 -133 -79 -77 -14 -100 -24 -128 -55 -18 -20 -18 -22 -2 -40 9 -10 19
-36 22 -57 3 -22 7 -50 10 -62 l5 -24 32 24 c45 34 67 41 74 23 11 -30 -18
-74 -63 -96 -47 -22 -52 -36 -33 -86 29 -78 14 -138 -44 -173 -42 -26 -61 -26
-47 -1 14 26 13 38 -2 23 -18 -18 -44 -16 -29 2 8 9 13 83 16 218 2 111 7 231
11 265 6 58 5 62 -20 78 -33 22 -110 21 -165 -1 -37 -15 -42 -20 -36 -41 5
-21 4 -22 -14 -11 -15 9 -25 9 -46 0 -14 -7 -23 -17 -20 -22 3 -6 1 -10 -4
-10 -6 0 -11 7 -11 15 0 18 -21 20 -39 3 -11 -11 -13 -10 -7 5 4 13 -4 31 -24
55 -35 43 -41 106 -12 141 25 31 74 42 108 25 15 -8 35 -12 46 -9 23 8 24 -11
1 -24 -15 -8 -16 -13 -5 -30 10 -18 10 -21 -3 -21 -8 0 -15 -7 -15 -15 0 -20
-46 -30 -65 -15 -17 14 -20 46 -6 54 5 3 11 -3 14 -14 7 -27 33 -25 40 2 8 29
-17 68 -43 68 -50 0 -82 -72 -57 -126 15 -30 21 -34 57 -34 22 0 69 12 105 27
55 23 64 30 59 46 -5 16 -3 19 11 14 9 -4 21 -7 26 -7 4 0 6 -7 3 -15 -5 -11
1 -15 26 -15 17 0 40 -5 52 -11 26 -14 35 -4 14 16 -9 9 -16 21 -16 26 0 17
43 -1 68 -27 22 -25 31 -61 12 -49 -17 11 -11 -21 8 -38 14 -13 20 -13 35 -3
11 9 15 20 11 32 -6 16 -5 17 7 7 29 -28 127 -6 171 37 21 21 28 38 28 67 0
44 -23 83 -49 83 -29 0 -71 -39 -71 -65 0 -27 26 -40 46 -24 20 16 17 29 -6
29 -11 0 -20 5 -20 10 0 14 36 12 48 -2 14 -18 -2 -55 -27 -63 -48 -15 -86 45
-56 91 18 27 70 44 102 33 15 -6 23 -4 27 7 8 21 19 17 13 -6z m-724 -46 c-12
-32 -38 -6 -27 28 6 20 7 21 20 4 7 -10 10 -24 7 -32z m993 -9 c31 -24 74 -76
74 -90 0 -4 -11 7 -25 23 -13 16 -50 46 -82 68 -78 52 -85 59 -39 40 22 -9 54
-28 72 -41z m-15 -41 c27 -15 55 -34 62 -43 7 -8 -5 -4 -28 9 -21 13 -73 35
-115 47 l-75 24 53 -5 c30 -3 74 -17 103 -32z m-1021 1 c0 -8 -4 -15 -9 -15
-13 0 -22 16 -14 24 11 11 23 6 23 -9z m3200 -132 c55 -359 63 -586 30 -893
l-19 -185 29 -26 c25 -21 30 -33 30 -71 0 -55 29 -46 -280 -88 -124 -17 -265
-39 -314 -50 -115 -25 -118 -25 -137 8 -9 15 -69 115 -134 222 -65 107 -149
254 -186 325 -65 125 -204 443 -197 450 5 6 190 -214 273 -325 43 -58 125
-152 182 -208 57 -57 103 -108 103 -113 0 -5 4 -9 9 -9 10 0 10 -5 -24 330
-21 199 -25 287 -23 469 l3 224 181 -424 c164 -384 184 -426 213 -443 18 -10
35 -16 38 -13 3 4 -2 24 -11 46 -15 38 -14 48 9 175 40 217 186 748 201 733 2
-2 13 -62 24 -134z m-1796 95 c8 -13 18 -35 21 -50 4 -16 11 -28 16 -28 5 0 6
7 3 15 -4 8 -1 15 4 15 6 0 13 -8 16 -17 7 -25 0 -214 -8 -235 -9 -20 -72 -51
-87 -43 -6 4 -8 13 -5 21 3 9 0 11 -11 7 -13 -5 -15 -2 -10 18 16 55 17 64 10
75 -5 6 -25 14 -45 17 -29 4 -38 2 -38 -9 0 -8 7 -14 15 -14 21 0 29 -24 15
-49 -9 -18 -21 -21 -73 -22 -34 0 -88 -4 -119 -8 -32 -4 -58 -3 -58 2 0 4 -4
6 -9 3 -9 -6 -24 19 -25 39 -1 32 17 181 24 200 10 27 59 43 71 23 5 -7 9 -26
9 -41 0 -27 1 -28 52 -25 61 4 69 17 34 53 -29 29 -33 40 -12 32 9 -4 12 0 9
13 -3 13 0 18 11 16 27 -4 38 -22 44 -77 l7 -54 41 -3 42 -3 6 45 c6 35 3 51
-11 73 -17 25 -17 27 0 20 9 -3 17 -2 17 3 0 19 30 10 44 -12z m-1384 -29 c0
-5 -4 -9 -10 -9 -5 0 -10 7 -10 16 0 8 5 12 10 9 6 -3 10 -10 10 -16z m3810
-34 c0 -17 -28 -27 -33 -12 -7 20 4 36 19 30 8 -3 14 -11 14 -18z m-3418 -125
c-2 -19 0 -22 10 -12 15 15 28 16 28 1 0 -5 -18 -40 -40 -76 -22 -37 -40 -76
-40 -88 0 -11 11 -37 25 -57 41 -60 30 -135 -24 -163 -56 -29 -165 -14 -199
28 -8 9 -20 13 -28 10 -8 -3 -14 0 -14 7 0 6 -4 9 -9 6 -5 -3 -8 6 -8 20 0 14
6 28 13 31 11 4 14 31 14 117 0 144 7 186 31 186 26 0 48 -37 55 -91 9 -64 15
-72 52 -64 38 8 86 61 77 84 -4 9 -9 31 -12 49 -7 37 13 45 27 10 8 -22 9 -22
9 5 1 22 5 28 19 25 11 -3 16 -12 14 -28z m1493 -80 c-4 -51 0 -92 11 -138 29
-116 20 -172 -28 -172 -19 0 -20 5 -16 68 3 37 1 90 -4 119 -6 38 -5 69 7 118
10 46 12 72 5 85 -15 29 -12 33 11 12 18 -17 20 -28 14 -92z m-1234 77 c-13
-13 -26 -3 -16 12 3 6 11 8 17 5 6 -4 6 -10 -1 -17z m1181 -6 c3 -3 3 -88 0
-189 -6 -146 -10 -185 -22 -192 -9 -6 -16 -6 -18 0 -2 6 -8 8 -13 4 -5 -3 -9
-1 -9 5 0 6 -6 8 -13 6 -9 -4 -11 7 -8 42 l3 48 -18 -23 c-16 -19 -122 -72
-146 -72 -11 0 -78 61 -78 71 0 5 9 17 20 26 23 20 26 35 6 27 -22 -8 -8 33
16 50 16 11 43 84 35 93 -2 1 -22 -3 -46 -9 -56 -14 -77 3 -67 56 7 38 15 43
34 24 8 -8 15 -8 25 0 7 6 30 12 51 14 44 3 73 -24 83 -75 5 -23 10 -28 27
-23 12 3 28 6 37 6 12 0 22 19 34 65 16 58 20 65 39 59 12 -3 24 -9 28 -13z
m-988 -30 c31 -29 35 -84 11 -151 -20 -57 -21 -55 24 -68 50 -16 47 -17 60 19
14 41 14 82 0 96 -19 19 -2 32 26 20 82 -39 65 -287 -20 -287 -19 0 -27 28
-14 51 5 11 7 29 4 40 -7 22 -12 22 -101 -3 -42 -12 -42 -12 -46 -66 -3 -38
-11 -59 -23 -68 -34 -25 -40 -16 -40 51 l0 66 -52 -7 c-50 -6 -52 -5 -59 20
-9 37 16 61 63 64 21 1 54 5 73 8 34 5 36 7 32 40 l-4 36 -59 -7 c-38 -5 -59
-3 -59 3 0 6 -2 17 -6 25 -7 19 52 47 100 47 25 0 36 5 36 15 0 11 -12 13 -62
9 -47 -4 -68 -2 -83 9 -16 13 -17 17 -6 31 7 9 20 16 28 16 7 0 16 6 19 13 3
9 22 11 69 7 49 -4 70 -11 89 -29z m1879 -45 c4 4 25 7 47 8 33 1 42 -3 45
-19 22 -104 65 -341 70 -385 6 -63 12 -73 -73 115 -53 118 -122 283 -122 292
0 3 6 0 13 -6 8 -6 17 -8 20 -5z m257 -16 c0 -13 1 -13 10 0 15 24 13 -12 -6
-84 -9 -33 -29 -122 -44 -196 -16 -74 -29 -121 -30 -105 0 17 -14 109 -30 205
-17 96 -30 180 -30 185 0 6 27 10 65 10 51 0 65 -3 65 -15z m-510 -203 c7 -86
20 -217 30 -290 9 -72 16 -133 16 -134 -1 -1 -26 28 -55 64 -71 91 -145 246
-165 351 -19 96 -21 155 -6 132 9 -13 11 -13 20 0 5 8 10 11 10 5 0 -5 7 -1
15 9 13 17 19 18 53 8 52 -16 62 -15 62 5 0 9 2 14 5 12 2 -3 9 -75 15 -162z
m-1139 110 c25 -16 35 -31 37 -55 3 -32 -23 -102 -39 -102 -5 0 -9 -7 -9 -16
0 -12 6 -15 23 -10 12 3 53 6 91 6 61 0 67 2 61 18 -5 13 -3 14 6 5 13 -13 4
-33 -17 -33 -8 0 -14 -6 -14 -14 0 -23 -41 -46 -82 -46 -20 0 -40 -4 -43 -10
-9 -15 -92 -12 -125 5 -16 8 -35 25 -41 37 -10 18 -8 24 7 35 10 7 23 13 28
13 6 0 3 7 -7 14 -22 17 -13 44 16 48 15 2 23 13 28 36 6 28 4 32 -10 27 -41
-17 -82 -17 -106 -1 -14 9 -23 21 -20 26 4 6 1 10 -5 10 -6 0 -9 4 -6 8 3 5
22 9 42 10 20 1 39 4 42 7 3 3 29 5 57 5 38 0 62 -6 86 -23z m919 -99 c7 -40
28 -109 46 -153 l34 -80 -30 35 c-45 52 -155 200 -155 208 0 4 -4 12 -8 19
-10 16 14 22 37 9 14 -8 20 -8 23 2 3 6 9 10 14 6 5 -3 12 2 15 10 3 9 8 16 9
16 2 0 9 -33 15 -72z m1070 -10 c0 -9 4 -8 10 2 7 11 10 11 10 2 0 -7 -7 -24
-16 -37 -9 -13 -12 -30 -8 -36 4 -8 3 -9 -4 -5 -15 9 -16 86 -2 86 6 0 10 -6
10 -12z m-3101 -252 c35 -75 33 -92 -3 -27 -20 36 -40 69 -46 75 -5 5 -10 14
-10 20 0 18 40 -27 59 -68z m674 60 c1 -5 -6 -14 -15 -20 -13 -8 -21 -7 -30 2
-10 10 -10 15 2 22 17 11 40 9 43 -4z m1236 -176 c24 -47 47 -90 52 -95 4 -6
4 -17 0 -24 -6 -9 -10 -5 -15 13 -4 15 -11 24 -16 21 -6 -3 -10 -1 -10 4 0 6
-6 11 -12 11 -21 0 -59 77 -65 130 -3 27 -9 48 -13 45 -6 -4 -30 60 -30 81 0
13 59 -88 109 -186z m-1318 157 c-1 -12 -15 -9 -19 4 -3 6 1 10 8 8 6 -3 11
-8 11 -12z m69 -36 c0 -6 -4 -13 -10 -16 -19 -12 -11 -26 9 -16 27 15 117 16
181 2 30 -6 72 -14 93 -17 40 -7 51 -24 15 -24 -21 0 -21 0 -2 -15 18 -14 18
-14 -3 -8 -15 3 -23 1 -24 -8 -1 -8 -2 -32 -3 -54 -1 -22 -5 -47 -10 -56 -6
-13 1 -18 31 -25 21 -4 46 -7 56 -6 20 2 23 -13 5 -22 -10 -5 -10 -7 1 -12 26
-12 -61 -43 -123 -44 l-58 0 6 -32 c11 -56 26 -63 136 -63 78 0 96 -3 88 -13
-6 -7 -8 -15 -4 -19 3 -3 -3 -12 -14 -20 -23 -16 -206 -46 -232 -37 -10 3 -43
0 -73 -6 -131 -27 -235 -10 -285 46 -29 33 -30 51 -7 82 14 18 54 15 77 -8 16
-16 18 -24 9 -43 -9 -19 -16 -23 -37 -19 l-27 6 25 6 c14 3 26 13 28 22 4 19
-33 42 -54 34 -23 -9 -17 -63 8 -80 32 -22 46 -20 77 13 18 19 41 31 71 35
101 16 98 14 102 56 4 44 -7 54 -48 44 -54 -14 -110 29 -83 63 10 12 10 16 0
23 -9 5 -10 13 -4 24 8 15 11 15 28 -4 28 -31 43 -25 43 19 0 22 6 49 11 60 9
16 8 21 -8 26 -10 3 -26 14 -36 25 -16 18 -16 20 -1 26 13 5 14 9 5 20 -9 11
-8 18 1 29 14 17 40 20 40 6z m535 -11 c22 -5 56 -6 75 -4 19 3 48 0 65 -6
l29 -11 -19 22 c-20 21 -20 21 0 18 27 -6 82 -89 90 -139 6 -35 10 -40 34 -40
25 0 29 6 49 69 25 77 52 112 52 68 0 -27 16 -45 28 -32 4 4 1 10 -6 12 -10 4
-10 8 -1 19 6 8 15 14 20 14 10 0 5 -108 -10 -185 -17 -95 -14 -136 17 -198
l29 -57 -24 6 c-15 4 -23 2 -23 -6 0 -7 -8 -2 -18 10 -19 24 -42 20 -42 -6 0
-15 -27 -19 -47 -6 -21 13 -30 54 -22 96 15 79 13 91 -22 91 -33 0 -29 7 -76
-123 -16 -46 -52 -79 -92 -88 -14 -3 -48 -14 -76 -24 -32 -13 -52 -17 -59 -10
-9 9 13 21 93 51 34 14 18 23 -18 11 -30 -10 -45 -6 -35 9 3 5 16 9 29 9 30 0
55 10 55 21 0 5 -8 9 -17 9 -16 0 -16 1 0 13 11 7 20 32 24 65 6 57 7 57 -34
41 -15 -6 -50 -17 -76 -24 -46 -12 -48 -11 -44 6 3 11 -1 25 -8 32 -10 10 -6
19 21 46 29 30 40 34 103 39 70 5 71 5 71 32 0 43 -54 47 -135 11 -75 -33 -79
-34 -97 -12 -16 21 -17 21 -23 1 -8 -24 -25 -27 -25 -4 0 22 18 54 49 88 22
25 23 28 6 22 -11 -4 -33 -10 -49 -13 -43 -9 -25 12 29 33 39 14 43 19 33 32
-11 13 -9 14 22 8 19 -5 53 -12 75 -16z m-605 -10 c0 -5 -4 -10 -10 -10 -5 0
-10 5 -10 10 0 6 5 10 10 10 6 0 10 -4 10 -10z m-629 -57 l34 -36 -37 28 c-21
15 -38 31 -38 36 0 14 4 11 41 -28z m3126 -10 c-3 -10 -5 -2 -5 17 0 19 2 27
5 18 2 -10 2 -26 0 -35z m-3011 3 c-5 -24 -2 -37 9 -46 8 -7 15 -18 15 -25 0
-7 7 -16 16 -19 23 -9 24 -8 24 15 0 35 32 17 46 -26 12 -36 12 -38 -1 -21
-13 18 -15 18 -15 3 0 -10 7 -29 16 -42 14 -21 19 -22 40 -13 35 16 58 -8 47
-48 l-7 -29 -6 35 -7 35 -11 -27 c-8 -19 -8 -36 -2 -54 13 -34 13 -77 -1 -91
-13 -13 -58 5 -95 38 -18 17 -25 18 -50 8 l-29 -12 33 -9 c40 -11 41 -18 2
-18 -40 0 -59 33 -34 61 14 16 15 24 6 44 -6 14 -18 25 -26 25 -7 0 -19 7 -26
15 -7 8 -17 15 -23 15 -5 0 -3 -8 5 -17 8 -10 18 -25 23 -33 4 -8 -6 1 -23 20
-17 19 -31 38 -32 42 0 14 20 19 40 8 16 -8 20 -8 20 3 0 23 -49 69 -83 78
l-32 8 30 -3 c17 -2 41 -7 55 -11 21 -6 23 -5 13 6 -32 34 4 64 39 33 21 -19
21 -19 14 9 -6 26 1 77 11 77 3 0 2 -15 -1 -34z m3018 -45 c3 -5 -1 -11 -9
-14 -9 -4 -12 -1 -8 9 6 16 10 17 17 5z m-2 -53 c-14 -14 -16 -42 -2 -33 6 3
10 1 10 -4 0 -6 -7 -11 -15 -11 -10 0 -15 10 -15 30 0 22 5 30 17 30 13 0 14
-3 5 -12z m-2532 -62 c0 -3 -4 -8 -10 -11 -5 -3 -10 -1 -10 4 0 6 5 11 10 11
6 0 10 -2 10 -4z m2510 -53 c-11 -17 -11 -17 -6 0 3 10 6 24 7 30 0 9 2 9 5 0
3 -7 0 -20 -6 -30z m-1015 -104 c9 -17 15 -33 13 -35 -3 -2 -12 12 -21 31 -21
43 -13 47 8 4z m-1565 -13 c0 -2 -9 -6 -20 -9 -11 -3 -20 -1 -20 4 0 5 9 9 20
9 11 0 20 -2 20 -4z m1624 -92 c5 -14 4 -15 -9 -4 -17 14 -19 20 -6 20 5 0 12
-7 15 -16z m1014 -5 c3 -12 2 -12 -6 0 -8 11 -11 10 -16 -5 -3 -11 -4 -31 -2
-46 2 -17 -1 -25 -9 -22 -16 6 -18 76 -2 86 16 10 30 5 35 -13z m-998 -44 c14
-19 14 -19 -2 -6 -10 7 -18 18 -18 24 0 6 1 8 3 6 1 -2 9 -13 17 -24z m1745
-5 c-5 -8 -11 -8 -21 1 -12 10 -12 14 -2 20 16 10 33 -5 23 -21z m-2790 -18
c0 -18 -20 -15 -23 4 -3 10 1 15 10 12 7 -3 13 -10 13 -16z m2875 8 c0 -12
-17 -12 -45 0 -17 7 -15 9 13 9 17 1 32 -3 32 -9z m-1786 -32 c18 -25 21 -53
6 -43 -5 3 -10 15 -10 25 0 10 -8 24 -17 29 -10 6 -13 11 -6 11 6 0 19 -10 27
-22z m1757 -3 c36 -19 29 -35 -14 -35 -25 0 -29 3 -17 11 11 8 12 12 3 16 -13
5 -18 23 -8 23 4 0 19 -7 36 -15z m-2911 -11 c47 -9 108 -25 135 -35 64 -24
85 -24 85 0 0 11 5 23 10 26 10 6 12 0 14 -45 1 -32 28 -33 36 -1 3 14 11 26
18 29 15 5 16 -22 2 -48 -8 -15 -4 -22 28 -42 20 -12 71 -50 114 -84 42 -34
86 -65 97 -69 12 -3 21 -11 21 -16 0 -5 9 -9 20 -9 24 0 27 -15 5 -24 -9 -3
-33 5 -54 18 -21 14 -56 28 -77 32 -22 4 -73 30 -114 57 -81 55 -264 137 -375
168 -166 46 -476 -2 -556 -87 -22 -23 -22 -24 -4 -63 17 -39 15 -71 -5 -71 -5
0 -10 6 -10 13 0 18 -40 80 -47 73 -4 -4 -6 -24 -5 -45 2 -22 -2 -42 -8 -46
-6 -4 -10 4 -10 19 0 40 -16 39 -73 -3 -72 -55 -141 -84 -207 -87 -51 -2 -55
-4 -62 -32 -5 -17 -15 -32 -23 -36 -18 -6 -18 -2 -6 42 9 31 7 35 -33 73 -58
52 -72 88 -57 138 12 43 55 91 80 91 9 0 33 -5 54 -11 51 -14 65 -44 42 -93
-28 -59 -95 -59 -95 0 0 27 15 32 24 9 8 -22 34 -18 47 7 10 18 8 24 -7 35
-25 18 -47 16 -78 -8 -47 -37 -30 -111 34 -144 70 -36 183 -7 302 78 192 137
239 161 367 182 167 28 259 30 371 9z m780 -40 c4 -24 11 -30 36 -32 48 -5 69
-34 70 -101 0 -50 3 -56 22 -59 12 -2 22 -7 22 -12 0 -11 -39 -24 -47 -16 -10
9 -33 -15 -33 -34 0 -10 7 -23 15 -30 16 -13 21 -50 7 -50 -5 0 -15 11 -22 25
-16 29 -29 30 -90 9 -37 -13 -52 -13 -87 -3 -53 14 -56 29 -5 22 30 -4 52 2
98 25 90 46 101 94 32 145 -33 24 -74 17 -89 -17 -21 -46 35 -97 68 -63 17 17
10 37 -13 37 -8 0 -14 7 -14 16 0 11 8 14 28 12 24 -3 27 -8 30 -43 4 -46 -14
-65 -64 -65 -24 0 -39 8 -58 31 -36 42 -35 93 1 131 26 27 26 28 7 43 -25 19
-5 19 22 0 27 -18 34 -11 34 33 0 42 23 39 30 -4z m1300 15 c-13 -8 -13 -10 0
-19 12 -8 12 -10 -5 -10 -11 0 -15 -4 -10 -8 12 -8 14 -102 3 -102 -5 0 -8 12
-9 28 l-1 27 -10 -27 c-5 -16 -16 -28 -23 -28 -13 0 -89 119 -81 127 2 2 32 8
66 13 34 5 65 11 68 14 3 3 8 4 11 0 3 -3 -1 -9 -9 -15z m849 -35 c-10 -13
-10 -17 2 -25 10 -6 3 -9 -23 -9 -29 0 -36 3 -32 15 4 8 14 15 24 15 11 0 22
5 25 10 3 6 9 10 12 10 3 0 0 -7 -8 -16z m-1041 -31 c41 -55 -37 -155 -97
-124 -31 17 -45 65 -29 97 24 52 95 67 126 27z m-1244 8 c8 -12 -21 -34 -34
-26 -8 5 -8 11 1 21 13 16 25 18 33 5z m-1350 -52 c-10 -16 -24 -9 -24 12 0
18 2 19 15 9 8 -7 12 -16 9 -21z m2103 17 c16 3 36 8 45 10 12 4 15 0 11 -16
-4 -16 0 -23 16 -27 11 -3 21 -7 21 -9 0 -14 -34 -84 -41 -84 -5 0 -6 -6 -3
-14 8 -21 -9 -26 -36 -9 -18 10 -19 13 -5 8 12 -3 2 11 -25 35 -25 22 -49 40
-53 40 -17 0 -38 30 -31 42 5 9 2 8 -9 -1 -10 -8 -20 -11 -23 -8 -12 11 70 44
88 35 10 -5 30 -6 45 -2z m1541 -4 c-10 -2 -18 -8 -18 -14 0 -6 8 -17 18 -24
24 -19 -2 -18 -38 1 -38 19 -39 43 -2 47 33 4 67 -4 40 -10z m-1235 -49 c13
-8 7 -40 -11 -56 -49 -45 -132 -24 -132 32 0 15 3 31 7 35 8 7 120 -2 136 -11z
m584 -14 c15 -6 58 -15 95 -20 37 -5 80 -16 95 -26 15 -10 43 -18 63 -18 33 0
35 -2 40 -40 3 -22 16 -53 28 -70 33 -46 47 -130 43 -271 l-1 -42 -37 19 c-21
10 -48 19 -60 19 -13 0 -26 7 -29 15 -4 8 -17 15 -30 15 -13 0 -28 9 -34 20
-6 11 -17 20 -25 20 -8 0 -31 23 -51 50 -42 59 -54 60 -25 2 20 -40 20 -41 2
-47 -10 -3 -23 -5 -27 -4 -29 5 -42 -5 -54 -41 -11 -35 -11 -42 5 -67 24 -37
40 -46 100 -58 42 -9 51 -14 53 -35 4 -30 29 -60 50 -60 29 0 72 -34 72 -57 0
-13 5 -23 10 -23 7 0 7 -6 1 -18 -6 -10 -8 -27 -5 -38 3 -13 -2 -22 -18 -29
-20 -9 -23 -17 -23 -60 0 -58 -24 -98 -67 -114 -16 -6 -28 -14 -28 -18 0 -4
-31 -7 -70 -5 -58 3 -71 1 -76 -13 -5 -11 2 -24 21 -39 20 -16 25 -25 16 -30
-7 -5 -11 -23 -9 -45 2 -26 -1 -36 -12 -36 -11 0 -14 10 -12 40 6 73 -18 104
-90 119 -20 5 -33 19 -52 59 -14 28 -32 60 -39 70 -19 23 -64 22 -134 -3 -55
-19 -57 -19 -77 -1 -12 10 -26 21 -33 25 -18 10 -174 -67 -207 -102 -28 -30
-28 -33 -13 -50 16 -18 14 -22 -38 -74 -58 -58 -66 -83 -40 -128 19 -34 18
-44 -2 -35 -10 5 -61 9 -114 11 -76 2 -105 7 -139 24 -27 14 -54 20 -73 17
-23 -3 -41 3 -71 24 -21 16 -44 29 -49 29 -15 0 -57 41 -57 56 0 6 -7 17 -15
24 -24 20 -29 76 -10 116 10 21 14 46 11 60 -4 15 -1 33 9 47 8 12 15 39 15
60 0 29 8 48 30 74 17 18 30 40 30 47 0 30 40 101 77 136 21 20 46 48 55 61
17 24 17 24 18 -24 0 -46 3 -51 68 -117 119 -121 281 -179 462 -165 52 5 110
7 129 6 41 -2 78 30 148 127 24 35 62 82 84 105 21 23 39 49 39 58 0 9 9 19
19 22 13 3 21 17 26 45 4 28 12 42 26 45 23 6 26 42 4 51 -13 4 -13 9 -3 25
18 29 -16 173 -53 229 l-29 43 22 9 c30 12 32 12 65 -1z m-1302 -9 c3 -5 1
-10 -4 -10 -6 0 -11 5 -11 10 0 6 2 10 4 10 3 0 8 -4 11 -10z m779 -54 c32
-31 75 -49 120 -52 50 -2 51 -3 61 -42 6 -22 13 -44 18 -48 15 -16 6 -100 -17
-150 -40 -86 -86 -103 -161 -59 -53 30 -86 74 -119 155 -14 35 -26 65 -26 67
0 2 9 3 20 3 11 0 20 5 20 10 0 13 -96 13 -121 0 -10 -6 -19 -18 -19 -27 0
-15 12 -15 51 1 12 5 21 -6 37 -49 19 -49 20 -62 11 -107 -13 -57 -6 -120 16
-151 8 -12 15 -30 15 -40 0 -10 11 -29 25 -43 25 -25 34 -64 15 -64 -5 0 -10
5 -10 10 0 6 -7 10 -16 10 -26 0 -12 -32 24 -53 18 -11 54 -25 80 -32 l47 -13
-85 -1 c-69 -1 -100 5 -169 29 -111 38 -135 62 -141 143 -10 119 6 265 39 362
17 49 31 91 31 93 0 1 11 -5 24 -13 17 -11 35 -14 67 -9 63 10 91 27 119 72
17 28 26 35 29 24 2 -8 8 -20 15 -26z m-2038 -26 c15 -6 26 -5 30 1 9 15 41
-17 46 -46 3 -16 1 -22 -8 -18 -6 2 -19 -6 -27 -18 -15 -21 -18 -21 -99 -10
-130 18 -262 43 -272 52 -5 4 0 6 10 5 11 -2 25 1 31 6 7 6 20 8 28 4 9 -3 18
1 21 8 3 9 17 13 37 12 18 -2 41 0 52 4 29 10 124 10 151 0z m-946 -8 c0 -13
-12 -22 -22 -16 -10 6 -1 24 13 24 5 0 9 -4 9 -8z m1093 2 c6 -6 58 -14 103
-16 24 -1 65 -32 81 -61 5 -11 8 -30 5 -44 -5 -25 -7 -25 -60 -19 -69 8 -72
10 -72 51 0 37 -21 52 -41 29 -10 -12 -14 -12 -20 -2 -5 7 -6 21 -3 32 4 10 0
22 -7 27 -8 5 -9 9 -3 9 6 0 14 -3 17 -6z m1157 -39 c0 -8 -7 -15 -15 -15 -8
0 -15 7 -15 15 0 8 7 15 15 15 8 0 15 -7 15 -15z m-2185 -26 c-4 -5 -13 -9
-22 -9 -13 0 -13 3 -3 15 13 15 35 11 25 -6z m1361 -31 c-3 -13 -6 -26 -6 -30
0 -9 -36 -10 -66 -2 -16 4 -20 11 -16 30 4 21 10 24 49 24 42 0 45 -2 39 -22z
m-631 -19 c192 -26 318 -49 332 -61 7 -5 16 -7 22 -4 5 3 78 -3 163 -13 84
-11 196 -25 248 -31 282 -31 375 -46 373 -61 -11 -105 -91 -510 -104 -525 -10
-12 -13 -12 -23 0 -20 26 -146 34 -501 34 -240 1 -422 6 -579 19 l-228 17 6
56 c4 30 11 116 16 190 5 74 14 187 20 250 5 63 10 126 10 139 0 27 -29 28
245 -10z m220 21 c3 -5 1 -10 -4 -10 -6 0 -11 5 -11 10 0 6 2 10 4 10 3 0 8
-4 11 -10z m540 -30 c25 -6 42 -15 69 -37 16 -14 36 -21 46 -18 9 3 32 -2 51
-10 l34 -16 -35 6 c-19 3 -62 8 -95 10 -97 7 -133 16 -139 32 -9 23 22 55 43
44 9 -5 21 -10 26 -11z m-1095 -112 c0 -75 -13 -138 -27 -138 -12 0 -14 10
-10 43 2 23 7 53 11 67 6 22 5 22 -4 5 -9 -18 -9 -18 -7 5 1 14 8 24 14 23 7
-2 10 4 7 12 -4 8 -1 15 5 15 6 0 11 -15 11 -32z m2570 -124 c27 -9 48 -10 71
-4 19 6 34 10 35 10 1 0 -1 -11 -4 -25 -6 -32 -19 -40 -37 -25 -15 13 -35 6
-35 -13 -1 -7 -7 -25 -14 -42 l-13 -30 -21 42 c-12 23 -22 49 -22 58 0 32 -17
13 -35 -41 -17 -50 -20 -54 -32 -38 -8 11 -13 48 -13 102 l0 84 41 -33 c22
-17 58 -38 79 -45z m165 18 c-7 -35 -8 -36 -18 -14 -7 16 -7 30 3 50 16 34 25
14 15 -36z m-1123 8 c2 6 24 0 49 -11 41 -19 48 -26 53 -60 7 -42 19 -49 35
-21 8 14 10 15 14 2 3 -8 11 -35 18 -60 8 -25 12 -46 9 -46 -3 -1 4 -12 15
-25 11 -12 15 -20 9 -16 -8 4 -12 -8 -12 -38 -1 -24 -9 -59 -17 -76 -9 -17
-14 -33 -12 -36 3 -2 -4 -29 -15 -60 -10 -31 -17 -62 -14 -70 3 -8 0 -29 -8
-47 -11 -28 -11 -39 0 -72 8 -21 14 -40 14 -42 0 -1 11 -7 25 -12 14 -5 25
-16 25 -24 0 -8 12 -24 26 -35 l25 -20 -17 -62 c-25 -87 -40 -99 -136 -99 -44
0 -78 4 -78 10 0 6 -9 6 -26 0 -14 -6 -33 -10 -42 -9 -9 1 0 6 21 11 30 8 37
15 37 34 0 13 -5 24 -12 24 -6 0 -3 7 8 15 18 14 18 14 -8 15 -32 0 -37 16 -8
25 11 3 20 13 20 22 0 13 -3 13 -15 3 -9 -7 -18 -10 -22 -6 -3 3 -1 6 6 6 8 0
11 8 8 20 -3 12 1 23 9 28 11 6 4 12 -25 22 -42 13 -51 24 -28 33 8 4 7 6 -3
6 -9 1 -21 -4 -28 -11 -9 -9 -15 -9 -24 0 -18 18 -38 14 -38 -8 0 -17 -7 -20
-42 -20 -32 0 -39 3 -28 10 11 8 9 9 -10 5 -36 -8 -207 -8 -258 0 -27 5 -54 3
-72 -5 -20 -8 -34 -9 -43 -3 -6 6 -34 11 -62 12 -27 1 -51 6 -53 10 -2 5 -12
7 -22 4 -23 -6 -24 0 -9 83 18 104 -1 94 182 94 135 0 176 -3 245 -21 l83 -22
22 24 c17 18 28 60 54 199 52 287 53 291 74 285 16 -6 19 -1 19 34 l0 41 39
-25 c22 -13 41 -20 43 -15z m1781 -84 c18 -14 23 -61 8 -70 -5 -3 -16 14 -24
39 -17 47 -13 53 16 31z m-644 -56 c30 0 -19 -95 -61 -116 -34 -18 -141 -15
-160 4 -13 13 -23 102 -12 102 5 0 20 -9 34 -20 35 -27 49 -25 61 10 11 31 23
38 34 20 11 -18 23 -10 35 23 l11 32 22 -27 c13 -16 29 -28 36 -28z m-2772
-42 c-3 -7 -5 -2 -5 12 0 14 2 19 5 13 2 -7 2 -19 0 -25z m-12 -137 c3 -5 1
-12 -5 -16 -5 -3 -10 1 -10 9 0 18 6 21 15 7z m545 -170 l205 -6 -1 -25 c-4
-71 -17 -142 -24 -131 -5 8 -10 9 -14 3 -4 -6 -20 -7 -43 -1 -21 5 -58 9 -82
9 -25 0 -72 6 -105 14 -34 8 -88 19 -121 26 -122 23 -255 77 -232 93 8 6 4 7
-11 4 -12 -3 -20 -1 -16 4 3 5 -1 9 -8 10 -7 0 -4 5 7 10 11 5 68 6 130 3 61
-4 202 -9 315 -13z m2300 -115 c0 -42 4 -58 19 -68 13 -10 17 -21 14 -45 -3
-19 -11 -33 -19 -33 -15 0 -37 36 -30 49 3 5 -6 37 -19 72 -30 76 -30 73 -5
66 11 -3 20 -1 20 4 0 5 5 9 10 9 6 0 10 -24 10 -54z m-191 -13 c7 -25 22 -45
41 -58 17 -11 36 -29 42 -39 9 -16 6 -24 -18 -43 -25 -20 -30 -21 -40 -8 -6 8
-18 15 -26 15 -9 0 -21 18 -29 43 -8 23 -25 51 -38 63 -29 25 -22 41 18 39 21
-1 28 2 24 12 -3 7 0 13 6 13 5 0 15 -17 20 -37z m-1829 -12 c-1 -14 -11 -70
-23 -123 -21 -92 -23 -96 -42 -82 -19 14 -19 16 -2 102 10 48 20 99 23 113 7
37 44 28 44 -10z m2216 4 c8 -11 13 -40 13 -69 -1 -34 -3 -41 -6 -21 -7 46
-18 49 -59 21 -43 -29 -77 -35 -68 -12 6 15 70 49 92 49 15 0 16 23 1 33 -6 4
-36 6 -67 6 -39 0 -51 3 -41 9 24 16 120 5 135 -16z m187 0 c25 -10 38 -24 46
-48 6 -18 27 -49 46 -67 35 -34 47 -81 24 -95 -7 -5 -6 -12 3 -23 29 -37 38
-64 38 -115 0 -30 6 -61 15 -74 14 -20 13 -23 -23 -50 -54 -43 -55 -43 -96
-32 -32 9 -37 14 -32 32 4 15 -1 27 -14 37 -20 16 -25 56 -14 122 5 28 1 43
-16 66 -20 27 -21 35 -11 60 13 31 4 69 -23 91 -14 12 -14 16 -1 41 14 27 13
30 -13 49 l-27 20 31 1 c17 0 47 -7 67 -15z m-3544 -8 c6 -8 14 -28 17 -45 4
-20 11 -29 18 -25 6 4 125 8 264 8 245 1 254 0 268 -20 12 -16 14 -85 14 -390
0 -203 0 -383 0 -400 0 -29 1 -30 53 -32 68 -2 175 -58 152 -81 -3 -3 -29 6
-57 22 -56 31 -153 43 -162 19 -3 -7 -19 -13 -36 -13 -40 0 -90 -44 -72 -62
18 -18 15 -30 -7 -23 -29 9 -71 -12 -71 -35 0 -23 -18 -27 -26 -5 -8 20 -24
19 -40 -2 -13 -17 -13 -17 -14 2 0 12 -17 32 -40 47 -22 15 -42 39 -46 53 -4
16 -13 25 -26 25 -10 0 -17 -4 -13 -9 10 -17 -18 -24 -30 -8 -9 12 -27 17 -63
17 -42 0 -52 3 -57 20 -7 23 -48 70 -60 70 -4 0 -14 -8 -22 -17 -13 -17 -14
-16 -10 8 5 33 -18 56 -38 39 -12 -10 -15 -9 -15 3 0 9 4 18 9 21 5 3 6 26 4
50 -6 54 14 93 82 155 l45 41 0 76 c0 62 -4 79 -21 97 -27 29 -49 82 -49 120
0 16 10 65 22 109 18 66 20 88 12 129 -11 49 -6 60 15 36z m2831 -107 c6 -11
17 -20 26 -20 23 0 37 -41 25 -73 -14 -36 -24 -34 -47 8 -10 20 -29 38 -42 42
-16 4 -20 9 -14 15 6 6 8 17 5 26 -4 10 -2 13 5 8 7 -4 12 -2 12 3 0 18 19 12
30 -9z m609 -56 c2 -2 -7 -4 -22 -4 -14 0 -29 5 -32 10 -6 10 42 4 54 -6z
m-497 -56 l-4 -63 26 38 c31 43 52 50 30 10 -19 -37 -18 -59 4 -75 35 -25 33
-36 -15 -64 -27 -15 -59 -34 -73 -43 -13 -9 -21 -11 -17 -4 4 7 25 22 47 34
48 27 50 42 10 66 -45 26 -50 60 -20 138 5 14 11 25 13 25 2 0 1 -28 -1 -62z
m-1369 38 c3 -8 24 -17 47 -21 38 -6 40 -8 26 -24 -20 -22 -20 -37 -1 -45 21
-8 19 -26 -3 -26 -25 0 -34 -11 -21 -26 7 -9 7 -19 -1 -34 -6 -11 -8 -25 -5
-30 3 -5 1 -28 -5 -50 -9 -33 -15 -40 -36 -40 -34 0 -76 -46 -72 -79 2 -19 11
-28 35 -35 40 -12 45 -25 37 -86 -9 -71 -14 -75 -96 -77 -40 -1 -95 -9 -123
-17 -27 -9 -58 -16 -67 -16 -17 0 -17 2 -1 35 11 22 24 35 36 35 24 0 77 56
77 81 0 23 -40 35 -68 20 -20 -11 -20 -9 -15 87 2 53 11 115 19 136 8 21 18
68 21 103 3 35 10 66 15 70 6 3 20 0 33 -7 26 -14 33 -12 90 30 44 32 70 38
78 16z m-528 -60 c18 -14 16 -14 -24 -2 -25 7 -52 23 -60 36 l-15 22 39 -20
c22 -11 49 -27 60 -36z m-23 -53 c5 -2 3 -13 -2 -24 -9 -15 -22 -19 -66 -19
-54 0 -54 0 -43 23 7 12 17 25 23 30 10 7 72 1 88 -10z m178 2 c0 -11 -11 -15
-37 -15 -21 0 -56 -3 -78 -6 l-40 -5 40 20 c49 25 115 28 115 6z m-26 -80 c-9
-14 -18 -25 -20 -25 -2 0 -4 11 -4 25 0 18 5 25 20 25 20 0 20 -1 4 -25z
m1654 -11 c12 -20 22 -44 22 -54 0 -19 25 -50 40 -50 5 0 11 -13 15 -29 3 -17
20 -48 36 -70 16 -23 29 -50 29 -61 0 -11 4 -20 10 -20 6 0 6 -8 0 -22 -5 -13
-14 -48 -20 -78 -14 -72 -50 -111 -94 -103 -50 9 -63 20 -70 57 -4 20 -14 39
-22 44 -19 11 -65 120 -53 127 4 3 -1 26 -12 52 -13 31 -17 56 -13 79 4 24 1
42 -11 60 -14 21 -14 28 -3 41 11 14 102 62 118 62 3 0 15 -16 28 -35z m-1747
11 c3 -2 -11 -80 -31 -172 -35 -165 -36 -168 -60 -165 -14 2 -26 5 -28 7 -4 3
20 120 49 248 18 78 23 87 43 87 13 0 25 -2 27 -5z m584 -406 c-4 -11 -11 -19
-17 -19 -7 0 -6 5 1 14 7 8 9 27 6 43 -5 27 -5 27 5 4 6 -13 8 -32 5 -42z
m-75 -29 c0 -5 -10 -10 -22 -9 -22 0 -22 1 -3 9 11 5 21 9 23 9 1 1 2 -3 2 -9z
m47 -6 c-3 -3 -12 -4 -19 -1 -8 3 -5 6 6 6 11 1 17 -2 13 -5z m43 -14 c0 -5
-4 -10 -10 -10 -5 0 -10 5 -10 10 0 6 5 10 10 10 6 0 10 -4 10 -10z m1798
-116 c-10 -10 -28 6 -28 24 0 15 1 15 17 -1 9 -9 14 -19 11 -23z m-3500 5 c-2
-6 -8 -10 -13 -10 -5 0 -11 4 -13 10 -2 6 4 11 13 11 9 0 15 -5 13 -11z m0
-60 c-2 -6 -8 -10 -13 -10 -5 0 -11 4 -13 10 -2 6 4 11 13 11 9 0 15 -5 13
-11z m85 4 c9 -9 -12 -33 -29 -33 -8 0 -14 9 -14 20 0 19 28 28 43 13z m97
-38 c0 -8 -4 -15 -10 -15 -5 0 -10 7 -10 15 0 8 5 15 10 15 6 0 10 -7 10 -15z
m70 -9 c0 -11 -19 -15 -25 -6 -3 5 1 10 9 10 9 0 16 -2 16 -4z"/>
<path d="M680 4519 c0 -5 5 -7 10 -4 6 3 10 8 10 11 0 2 -4 4 -10 4 -5 0 -10
-5 -10 -11z"/>
<path d="M942 4530 c0 -19 2 -27 5 -17 2 9 2 25 0 35 -3 9 -5 1 -5 -18z"/>
<path d="M1580 3973 c0 -39 13 -55 41 -51 48 6 32 78 -17 78 -20 0 -24 -5 -24
-27z"/>
<path d="M687 3723 c-6 -57 -3 -63 28 -63 43 0 59 56 25 90 -33 33 -47 25 -53
-27z"/>
<path d="M2177 3759 c-9 -6 -25 -8 -35 -5 -12 4 -21 -3 -31 -25 -7 -16 -12
-32 -10 -34 3 -2 94 14 106 19 1 1 4 13 8 29 8 29 -5 35 -38 16z"/>
<path d="M2623 3701 c0 -11 5 -18 9 -15 4 3 5 11 1 19 -7 21 -12 19 -10 -4z"/>
<path d="M1407 3298 c28 -14 35 -32 22 -65 -6 -17 -6 -30 0 -36 13 -13 41 -1
41 17 0 9 9 30 20 48 11 18 20 36 20 41 0 4 -28 7 -62 6 -52 0 -59 -2 -41 -11z"/>
<path d="M3737 2683 c-4 -3 -7 -11 -7 -17 0 -6 5 -5 12 2 6 6 9 14 7 17 -3 3
-9 2 -12 -2z"/>
<path d="M3517 2666 c-7 -18 1 -26 25 -26 11 0 18 7 18 20 0 23 -35 28 -43 6z"/>
<path d="M3344 2619 c-10 -17 13 -36 27 -22 12 12 4 33 -11 33 -5 0 -12 -5
-16 -11z"/>
<path d="M3190 1470 c0 -8 -8 -10 -21 -7 -12 3 -27 0 -35 -7 -18 -18 9 -56 40
-56 32 0 63 36 50 57 -13 21 -34 29 -34 13z"/>
<path d="M1442 2328 c-18 -18 -15 -56 6 -66 9 -6 41 -13 70 -17 42 -6 52 -11
52 -26 0 -17 -8 -19 -95 -19 -88 0 -96 -2 -110 -23 -8 -13 -18 -43 -21 -68 -5
-35 -2 -49 13 -67 16 -21 32 -25 137 -34 99 -9 119 -9 127 3 7 11 4 45 -6 56
-1 2 -43 6 -93 9 -99 7 -118 14 -109 37 5 13 20 15 96 10 108 -7 117 -2 126
73 13 97 0 111 -110 129 -22 3 -47 8 -55 11 -9 2 -21 -1 -28 -8z"/>
<path d="M1833 2226 c-33 -30 -38 -40 -37 -77 2 -70 59 -91 125 -46 42 28 56
64 43 114 -8 36 -12 38 -51 41 -36 3 -47 -2 -80 -32z m80 -46 c-6 -24 -37 -43
-61 -38 -14 3 -11 10 15 37 35 34 55 35 46 1z"/>
<path d="M2031 2203 c-6 -21 -12 -58 -13 -83 l-3 -45 35 0 c19 -1 43 3 53 7
24 12 22 48 -2 48 -11 0 -23 5 -26 10 -4 6 6 9 27 8 27 -3 34 1 36 18 2 17 -4
23 -26 27 -18 4 -31 14 -35 26 -9 34 -35 25 -46 -16z"/>
<path d="M1910 2041 c-13 -25 0 -38 50 -48 34 -6 46 -13 48 -29 2 -18 -4 -22
-35 -27 -21 -4 -49 -7 -63 -7 -38 0 -51 -13 -61 -60 -12 -53 -4 -63 63 -79 66
-16 70 -15 66 16 -2 22 -10 29 -36 34 -70 14 -54 32 36 39 l66 5 13 45 c23 79
14 91 -85 115 -47 11 -54 11 -62 -4z"/>
<path d="M1436 1984 c-3 -9 -6 -23 -6 -32 0 -35 -13 -42 -59 -30 -38 10 -46 9
-56 -6 -23 -31 -7 -54 48 -66 86 -18 185 -30 201 -24 10 4 16 18 16 35 0 23
-4 29 -22 29 -13 0 -34 3 -47 7 -21 5 -22 10 -17 44 5 31 3 40 -13 49 -27 14
-38 13 -45 -6z"/>
<path d="M2726 1895 c-9 -26 -7 -32 5 -12 6 10 9 21 6 23 -2 3 -7 -2 -11 -11z"/>
<path d="M597 1361 c-22 -62 -21 -106 2 -156 l19 -40 1 123 c1 67 0 122 -2
122 -1 0 -10 -22 -20 -49z"/>
<path d="M856 1379 c-30 -23 -34 -63 -11 -96 14 -19 13 -30 -5 -108 -11 -47
-20 -90 -20 -95 0 -6 36 -10 81 -10 61 0 80 3 76 13 -2 6 -12 50 -22 95 -17
80 -17 85 -1 114 15 25 16 34 5 59 -10 27 -42 49 -68 49 -5 0 -20 -9 -35 -21z"/>
<path d="M1001 1304 c-22 -16 -28 -53 -10 -71 7 -7 7 -23 -1 -53 -6 -24 -9
-58 -5 -77 6 -32 7 -33 54 -33 l48 0 -17 72 c-14 62 -15 78 -4 104 10 25 11
35 1 46 -19 24 -43 28 -66 12z"/>
<path d="M733 1073 c15 -2 37 -2 50 0 12 2 0 4 -28 4 -27 0 -38 -2 -22 -4z"/>
<path d="M712 965 c0 -22 2 -32 5 -22 2 9 7 17 10 17 4 0 16 -8 27 -17 21 -18
21 -18 2 4 -16 20 -17 25 -5 40 12 16 12 16 -8 0 -21 -18 -21 -18 -26 0 -3 10
-5 0 -5 -22z"/>
<path d="M785 981 c-9 -28 5 -51 30 -51 25 0 39 23 30 51 -8 25 -52 25 -60 0z
m53 -14 c4 -20 -25 -34 -40 -19 -15 15 -1 44 19 40 10 -2 19 -11 21 -21z"/>
<path d="M871 963 c1 -21 3 -30 6 -20 6 21 12 22 28 1 10 -14 12 -11 13 20 1
32 -1 36 -23 36 -22 0 -25 -4 -24 -37z m39 17 c0 -5 -7 -10 -15 -10 -8 0 -15
5 -15 10 0 6 7 10 15 10 8 0 15 -4 15 -10z"/>
<path d="M950 965 c0 -32 2 -35 28 -34 23 2 24 2 5 6 -27 5 -30 20 -5 26 16 4
16 5 0 6 -10 0 -18 5 -18 10 0 5 8 12 18 14 13 4 11 5 -5 6 -20 1 -23 -4 -23
-34z"/>
<path d="M1031 969 c-14 -41 -14 -42 3 -27 7 7 11 19 9 25 -3 7 -1 13 5 13 5
0 13 -12 16 -26 4 -15 10 -24 13 -21 7 8 -17 67 -27 67 -5 0 -13 -14 -19 -31z"/>
<path d="M612 954 c-1 -6 -18 -31 -37 -55 -36 -45 -52 -94 -41 -126 10 -28 40
-60 64 -67 18 -6 22 -3 22 16 0 13 -9 29 -20 36 -26 16 -25 37 0 62 18 18 20
31 17 83 -2 34 -4 57 -5 51z"/>
<path d="M710 845 c0 -30 3 -35 24 -35 27 0 35 13 28 47 -3 16 -11 23 -28 23
-21 0 -24 -5 -24 -35z m40 15 c0 -5 -7 -10 -15 -10 -8 0 -15 5 -15 10 0 6 7
10 15 10 8 0 15 -4 15 -10z m0 -30 c0 -5 -7 -10 -15 -10 -8 0 -15 5 -15 10 0
6 7 10 15 10 8 0 15 -4 15 -10z"/>
<path d="M785 861 c-13 -42 27 -70 55 -36 14 17 10 47 -8 51 -7 1 -8 0 -2 -3
16 -7 12 -43 -6 -50 -25 -9 -41 14 -26 37 7 11 8 20 3 20 -5 0 -12 -8 -16 -19z"/>
<path d="M886 871 c-3 -4 -10 -21 -16 -36 -9 -24 -9 -26 4 -16 9 7 14 17 13
21 -1 4 3 8 8 8 6 0 9 -4 8 -8 -1 -4 4 -14 12 -20 19 -16 19 -7 0 30 -17 32
-21 35 -29 21z"/>
<path d="M951 843 c1 -21 3 -30 6 -20 6 21 12 22 27 1 10 -13 12 -10 13 20 1
32 -2 36 -23 36 -21 0 -24 -4 -23 -37z m39 17 c0 -5 -7 -10 -15 -10 -8 0 -15
5 -15 10 0 6 7 10 15 10 8 0 15 -4 15 -10z"/>
<path d="M1050 872 c23 -7 26 -13 22 -42 -3 -14 -29 -12 -35 3 -3 7 -6 5 -6
-5 -1 -23 32 -24 50 -2 17 21 0 48 -32 51 -24 2 -24 2 1 -5z"/>
<path d="M607 795 c-4 -8 -2 -17 3 -20 6 -4 10 3 10 14 0 25 -6 27 -13 6z"/>
<path d="M714 746 c-11 -29 1 -51 29 -54 22 -3 27 1 27 17 0 12 -4 21 -10 21
-5 0 -7 -7 -4 -15 4 -11 0 -15 -16 -15 -19 0 -22 4 -18 30 5 32 1 39 -8 16z"/>
<path d="M805 730 c-19 -37 -19 -46 1 -29 12 10 20 10 35 1 10 -7 19 -10 19
-7 0 9 -30 65 -35 65 -2 0 -11 -13 -20 -30z m30 0 c3 -5 -1 -10 -10 -10 -9 0
-13 5 -10 10 3 6 8 10 10 10 2 0 7 -4 10 -10z"/>
<path d="M871 723 c0 -30 2 -34 9 -18 7 18 8 19 15 3 7 -18 25 -15 25 3 0 6
-4 7 -10 4 -5 -3 -12 6 -16 20 -9 38 -24 30 -23 -12z"/>
<path d="M924 746 c-3 -8 -1 -23 5 -33 9 -15 10 -13 11 15 0 34 -7 42 -16 18z"/>
<path d="M1035 751 c-3 -5 -2 -12 3 -15 5 -3 9 1 9 9 0 17 -3 19 -12 6z"/>
<path d="M970 729 c0 -5 9 -9 20 -9 11 0 20 2 20 4 0 2 -9 6 -20 9 -11 3 -20
1 -20 -4z"/>
<path d="M1070 723 c21 -10 9 -25 -16 -20 -16 3 -22 1 -16 -5 14 -14 47 -6 47
11 0 8 -6 15 -13 17 -7 1 -8 0 -2 -3z"/>
<path d="M968 698 c6 -6 18 -8 28 -6 14 3 12 5 -9 10 -19 3 -25 2 -19 -4z"/>
<path d="M611 674 c0 -11 3 -14 6 -6 3 7 2 16 -1 19 -3 4 -6 -2 -5 -13z"/>
<path d="M841 583 c40 -51 55 -53 140 -13 l64 29 -48 1 c-30 0 -46 -4 -42 -10
3 -5 -3 -10 -14 -10 -12 0 -21 5 -21 10 0 6 -21 10 -46 10 -43 0 -45 -1 -33
-17z"/>
<path d="M2455 990 c-3 -5 3 -10 15 -10 12 0 18 5 15 10 -3 6 -10 10 -15 10
-5 0 -12 -4 -15 -10z"/>
</g>
</svg>
